<svg xmlns="http://www.w3.org/2000/svg" xml:space="preserve" width="1293.98" height="1975.9999999999995" viewBox="0 0 1293.98 1975.9999999999995"><rect width="1293.98" height="1975.9999999999995" fill="#ffffff"/><defs>
    <linearGradient id="figure5-card" x1="0" y1="0" x2="1" y2="1">
      <stop offset="0" stop-color="#08254e"/>
      <stop offset="1" stop-color="#185aa4"/>
    </linearGradient>
    <filter id="figure5-shadow" x="-10%" y="-20%" width="120%" height="150%">
      <feDropShadow dx="0" dy="3" stdDeviation="3" flood-color="#061c3c" flood-opacity="0.16"/>
    </filter>
  </defs><rect x="16" y="16" width="1261.98" height="1943.9999999999995" rx="18" fill="#ffffff" stroke="#d4e3f5"/><text x="646.99" y="58" text-anchor="middle" font-family="DejaVu Sans" font-size="34" font-weight="bold" fill="#061c3c">Azure Deployment Architecture</text><text x="646.99" y="86" text-anchor="middle" font-family="DejaVu Sans" font-size="14" fill="#315f99">Veyport · Azure Deployment Architecture</text><svg id="figure5" overflow="visible" x="48" y="112" width="1197.98" height="1811.9999999999995" viewBox="-8.5 -28.1 1197.98 1811.9999999999995"><style>#figure5{font-family:DejaVu Sans;font-size:18px;fill:#ffffff;}@keyframes edge-animation-frame{from{stroke-dashoffset:0;}}@keyframes dash{to{stroke-dashoffset:0;}}#figure5 .edge-animation-slow{stroke-dasharray:9,5!important;stroke-dashoffset:900;animation:dash 50s linear infinite;stroke-linecap:round;}#figure5 .edge-animation-fast{stroke-dasharray:9,5!important;stroke-dashoffset:900;animation:dash 20s linear infinite;stroke-linecap:round;}#figure5 .error-icon{fill:#eef4fc;}#figure5 .error-text{fill:#110b03;stroke:#110b03;}#figure5 .edge-thickness-normal{stroke-width:1px;}#figure5 .edge-thickness-thick{stroke-width:3.5px;}#figure5 .edge-pattern-solid{stroke-dasharray:0;}#figure5 .edge-thickness-invisible{stroke-width:0;fill:none;}#figure5 .edge-pattern-dashed{stroke-dasharray:3;}#figure5 .edge-pattern-dotted{stroke-dasharray:2;}#figure5 .marker{fill:#123560;stroke:#123560;}#figure5 .marker.cross{stroke:#123560;}#figure5 svg{font-family:DejaVu Sans;font-size:18px;}#figure5 p{margin:0;}#figure5 .label{font-family:DejaVu Sans;color:#ffffff;}#figure5 .cluster-label text{fill:#110b03;}#figure5 .cluster-label span{color:#110b03;}#figure5 .cluster-label span p{background-color:transparent;}#figure5 .label text,#figure5 span{fill:#ffffff;color:#ffffff;}#figure5 .node rect,#figure5 .node circle,#figure5 .node ellipse,#figure5 .node polygon,#figure5 .node path{fill:#123c71;stroke:#1c579c;stroke-width:1px;}#figure5 .rough-node .label text,#figure5 .node .label text,#figure5 .image-shape .label,#figure5 .icon-shape .label{text-anchor:middle;}#figure5 .node .katex path{fill:#000;stroke:#000;stroke-width:1px;}#figure5 .rough-node .label,#figure5 .node .label,#figure5 .image-shape .label,#figure5 .icon-shape .label{text-align:center;}#figure5 .node.clickable{cursor:pointer;}#figure5 .root .anchor path{fill:#123560!important;stroke-width:0;stroke:#123560;}#figure5 .arrowheadPath{fill:#080500;}#figure5 .edgePath .path{stroke:#123560;stroke-width:1px;}#figure5 .flowchart-link{stroke:#123560;fill:none;}#figure5 .edgeLabel{background-color:#f7faff;text-align:center;}#figure5 .edgeLabel p{background-color:#f7faff;}#figure5 .edgeLabel rect{opacity:0.5;background-color:#f7faff;fill:#f7faff;}#figure5 .labelBkg{background-color:rgba(247, 250, 255, 0.5);}#figure5 .cluster rect{fill:#eef4fc;stroke:#4775b3;stroke-width:1px;}#figure5 .cluster text{fill:#110b03;}#figure5 .cluster span{color:#110b03;}#figure5 div.mermaidTooltip{position:absolute;text-align:center;max-width:200px;padding:2px;font-family:DejaVu Sans;font-size:12px;background:#eef4fc;border:1px solid hsl(214.2857142857, 30%, 86.0784313725%);border-radius:2px;pointer-events:none;z-index:100;}#figure5 .flowchartTitleText{text-anchor:middle;font-size:18px;fill:#ffffff;}#figure5 rect.text{fill:none;stroke-width:0;}#figure5 .icon-shape,#figure5 .image-shape{background-color:#f7faff;text-align:center;}#figure5 .icon-shape p,#figure5 .image-shape p{background-color:#f7faff;padding:2px;}#figure5 .icon-shape .label rect,#figure5 .image-shape .label rect{opacity:0.5;background-color:#f7faff;fill:#f7faff;}#figure5 .label-icon{display:inline-block;height:1em;overflow:visible;vertical-align:-0.125em;}#figure5 .node .label-icon path{fill:currentColor;stroke:revert;stroke-width:revert;}#figure5 .node .neo-node{stroke:#1c579c;}#figure5 [data-look="neo"].node rect,#figure5 [data-look="neo"].cluster rect,#figure5 [data-look="neo"].node polygon{stroke:url(#figure5-gradient);filter:drop-shadow( 1px 2px 2px rgba(185,185,185,1));}#figure5 [data-look="neo"].node path{stroke:url(#figure5-gradient);stroke-width:1px;}#figure5 [data-look="neo"].node .outer-path{filter:drop-shadow( 1px 2px 2px rgba(185,185,185,1));}#figure5 [data-look="neo"].node .neo-line path{stroke:#1c579c;filter:none;}#figure5 [data-look="neo"].node circle{stroke:url(#figure5-gradient);filter:drop-shadow( 1px 2px 2px rgba(185,185,185,1));}#figure5 [data-look="neo"].node circle .state-start{fill:#000000;}#figure5 [data-look="neo"].icon-shape .icon{fill:url(#figure5-gradient);filter:drop-shadow( 1px 2px 2px rgba(185,185,185,1));}#figure5 [data-look="neo"].icon-shape .icon-neo path{stroke:url(#figure5-gradient);filter:drop-shadow( 1px 2px 2px rgba(185,185,185,1));}#figure5 :root{--mermaid-font-family:DejaVu Sans;}</style><g><marker id="figure5_flowchart-v2-pointEnd" class="marker flowchart-v2" viewBox="0 0 10 10" refX="5" refY="5" markerUnits="userSpaceOnUse" markerWidth="8" markerHeight="8" orient="auto"><path d="M 0 0 L 10 5 L 0 10 z" class="arrowMarkerPath" style="stroke-width: 1; stroke-dasharray: 1,0;"/></marker><marker id="figure5_flowchart-v2-pointStart" class="marker flowchart-v2" viewBox="0 0 10 10" refX="4.5" refY="5" markerUnits="userSpaceOnUse" markerWidth="8" markerHeight="8" orient="auto"><path d="M 0 5 L 10 10 L 10 0 z" class="arrowMarkerPath" style="stroke-width: 1; stroke-dasharray: 1,0;"/></marker><marker id="figure5_flowchart-v2-pointEnd-margin" class="marker flowchart-v2" viewBox="0 0 11.5 14" refX="11.5" refY="7" markerUnits="userSpaceOnUse" markerWidth="10.5" markerHeight="14" orient="auto"><path d="M 0 0 L 11.5 7 L 0 14 z" class="arrowMarkerPath" style="stroke-width: 0; stroke-dasharray: 1,0;"/></marker><marker id="figure5_flowchart-v2-pointStart-margin" class="marker flowchart-v2" viewBox="0 0 11.5 14" refX="1" refY="7" markerUnits="userSpaceOnUse" markerWidth="11.5" markerHeight="14" orient="auto"><polygon points="0,7 11.5,14 11.5,0" class="arrowMarkerPath" style="stroke-width: 0; stroke-dasharray: 1,0;"/></marker><marker id="figure5_flowchart-v2-circleEnd" class="marker flowchart-v2" viewBox="0 0 10 10" refX="11" refY="5" markerUnits="userSpaceOnUse" markerWidth="11" markerHeight="11" orient="auto"><circle cx="5" cy="5" r="5" class="arrowMarkerPath" style="stroke-width: 1; stroke-dasharray: 1,0;"/></marker><marker id="figure5_flowchart-v2-circleStart" class="marker flowchart-v2" viewBox="0 0 10 10" refX="-1" refY="5" markerUnits="userSpaceOnUse" markerWidth="11" markerHeight="11" orient="auto"><circle cx="5" cy="5" r="5" class="arrowMarkerPath" style="stroke-width: 1; stroke-dasharray: 1,0;"/></marker><marker id="figure5_flowchart-v2-circleEnd-margin" class="marker flowchart-v2" viewBox="0 0 10 10" refY="5" refX="12.25" markerUnits="userSpaceOnUse" markerWidth="14" markerHeight="14" orient="auto"><circle cx="5" cy="5" r="5" class="arrowMarkerPath" style="stroke-width: 0; stroke-dasharray: 1,0;"/></marker><marker id="figure5_flowchart-v2-circleStart-margin" class="marker flowchart-v2" viewBox="0 0 10 10" refX="-2" refY="5" markerUnits="userSpaceOnUse" markerWidth="14" markerHeight="14" orient="auto"><circle cx="5" cy="5" r="5" class="arrowMarkerPath" style="stroke-width: 0; stroke-dasharray: 1,0;"/></marker><marker id="figure5_flowchart-v2-crossEnd" class="marker cross flowchart-v2" viewBox="0 0 11 11" refX="12" refY="5.2" markerUnits="userSpaceOnUse" markerWidth="11" markerHeight="11" orient="auto"><path d="M 1,1 l 9,9 M 10,1 l -9,9" class="arrowMarkerPath" style="stroke-width: 2; stroke-dasharray: 1,0;"/></marker><marker id="figure5_flowchart-v2-crossStart" class="marker cross flowchart-v2" viewBox="0 0 11 11" refX="-1" refY="5.2" markerUnits="userSpaceOnUse" markerWidth="11" markerHeight="11" orient="auto"><path d="M 1,1 l 9,9 M 10,1 l -9,9" class="arrowMarkerPath" style="stroke-width: 2; stroke-dasharray: 1,0;"/></marker><marker id="figure5_flowchart-v2-crossEnd-margin" class="marker cross flowchart-v2" viewBox="0 0 15 15" refX="17.7" refY="7.5" markerUnits="userSpaceOnUse" markerWidth="12" markerHeight="12" orient="auto"><path d="M 1,1 L 14,14 M 1,14 L 14,1" class="arrowMarkerPath" style="stroke-width: 2.5;"/></marker><marker id="figure5_flowchart-v2-crossStart-margin" class="marker cross flowchart-v2" viewBox="0 0 15 15" refX="-3.5" refY="7.5" markerUnits="userSpaceOnUse" markerWidth="12" markerHeight="12" orient="auto"><path d="M 1,1 L 14,14 M 1,14 L 14,1" class="arrowMarkerPath" style="stroke-width: 2.5; stroke-dasharray: 1,0;"/></marker><g class="root"><g class="clusters"><g class="cluster" id="figure5-Azure" data-look="classic"><rect style="" x="12.399999999999977" y="396.60000000000014" width="1169.08" height="1379.2999999999997" rx="16" ry="16"/><g class="cluster-label" transform="translate(570.8399999999999, 396.60000000000014)"><g><rect class="background" style="stroke: none" rx="16" ry="16"/><text y="-10.1" style=""><tspan class="text-outer-tspan row" x="0" y="-0.1em" dy="1.1em">Azure</tspan></text></g></g></g><g class="cluster" id="figure5-Internet" data-look="classic"><rect style="" x="8" y="8" width="752.8" height="240.3" rx="16" ry="16"/><g class="cluster-label" transform="translate(342.64, 8)"><g><rect class="background" style="stroke: none" rx="16" ry="16"/><text y="-10.1" style=""><tspan class="text-outer-tspan row" x="0" y="-0.1em" dy="1.1em">Internet</tspan></text></g></g></g><g class="cluster" id="figure5-VNet" data-look="classic"><rect style="" x="36.360000000000014" y="749.4999999999999" width="1125.12" height="966.3999999999999" rx="16" ry="16"/><g class="cluster-label" transform="translate(520.62, 749.4999999999999)"><g><rect class="background" style="stroke: none" rx="16" ry="16"/><text y="-10.1" style=""><tspan class="text-outer-tspan row" x="0" y="-0.1em" dy="1.1em">Virtual Network</tspan></text></g></g></g><g class="cluster" id="figure5-OptionB" data-look="classic"><rect style="" x="56.360000000000014" y="1102.4" width="532.56" height="553.4999999999998" rx="16" ry="16"/><g class="cluster-label" transform="translate(213.01999999999998, 1102.4)"><g><rect class="background" style="stroke: none" rx="16" ry="16"/><text y="-10.1" style=""><tspan class="text-outer-tspan row" x="0" y="-0.1em" dy="1.1em">Option B: App Service</tspan></text></g></g></g><g class="cluster" id="figure5-OptionA" data-look="classic"><rect style="" x="608.92" y="1102.4" width="532.56" height="553.4999999999998" rx="16" ry="16"/><g class="cluster-label" transform="translate(723.8199999999999, 1102.4)"><g><rect class="background" style="stroke: none" rx="16" ry="16"/><text y="-10.1" style=""><tspan class="text-outer-tspan row" x="0" y="-0.1em" dy="1.1em">Option A: Container Instances</tspan></text></g></g></g></g><g class="edgePaths"><path d="M185.54,188.3L185.54,198.3C185.54,208.3,185.54,228.3,185.54,250.658C185.54,273.017,185.54,297.733,185.54,322.45C185.54,347.167,185.54,371.883,198.847,393.851C212.154,415.819,238.767,435.039,252.074,444.648L265.381,454.258" id="figure5-L_Browser_DNS_0" class="edge-thickness-normal edge-pattern-solid edge-thickness-normal edge-pattern-solid flowchart-link" style=";" data-edge="true" data-et="edge" data-id="L_Browser_DNS_0" data-points="W3sieCI6MTg1LjUzOTk5OTk5OTk5OTk2LCJ5IjoxODguM30seyJ4IjoxODUuNTM5OTk5OTk5OTk5OTYsInkiOjI0OC4zfSx7IngiOjE4NS41Mzk5OTk5OTk5OTk5NiwieSI6MzIyLjQ1fSx7IngiOjE4NS41Mzk5OTk5OTk5OTk5NiwieSI6Mzk2LjZ9LHsieCI6MjY4LjYyMzkwMDIyNjc1NzMsInkiOjQ1Ni41OTk5OTk5OTk5OTk5N31d" data-look="classic" marker-end="url(#figure5_flowchart-v2-pointEnd)"/><path d="M551.94,188.3L551.94,198.3C551.94,208.3,551.94,228.3,551.94,250.658C551.94,273.017,551.94,297.733,551.94,322.45C551.94,347.167,551.94,371.883,538.633,393.851C525.326,415.819,498.713,435.039,485.406,444.648L472.099,454.258" id="figure5-L_Agent_DNS_0" class="edge-thickness-normal edge-pattern-solid edge-thickness-normal edge-pattern-solid flowchart-link" style=";" data-edge="true" data-et="edge" data-id="L_Agent_DNS_0" data-points="W3sieCI6NTUxLjkzOTk5OTk5OTk5OTksInkiOjE4OC4zfSx7IngiOjU1MS45Mzk5OTk5OTk5OTk5LCJ5IjoyNDguM30seyJ4Ijo1NTEuOTM5OTk5OTk5OTk5OSwieSI6MzIyLjQ1fSx7IngiOjU1MS45Mzk5OTk5OTk5OTk5LCJ5IjozOTYuNn0seyJ4Ijo0NjguODU2MDk5NzczMjQyNiwieSI6NDU2LjU5OTk5OTk5OTk5OTk3fV0=" data-look="classic" marker-end="url(#figure5_flowchart-v2-pointEnd)"/><path d="M368.74,601.2L368.74,613.558C368.74,625.917,368.74,650.633,368.74,675.35C368.74,700.067,368.74,724.783,385.56,746.809C402.381,768.836,436.021,788.171,452.842,797.839L469.662,807.507" id="figure5-L_DNS_AppGW_0" class="edge-thickness-normal edge-pattern-solid edge-thickness-normal edge-pattern-solid flowchart-link" style=";" data-edge="true" data-et="edge" data-id="L_DNS_AppGW_0" data-points="W3sieCI6MzY4LjczOTk5OTk5OTk5OTk1LCJ5Ijo2MDEuMTk5OTk5OTk5OTk5OX0seyJ4IjozNjguNzM5OTk5OTk5OTk5OTUsInkiOjY3NS4zNX0seyJ4IjozNjguNzM5OTk5OTk5OTk5OTUsInkiOjc0OS41fSx7IngiOjQ3My4xMzAwMjI2NzU3MzY5LCJ5Ijo4MDkuNX1d" data-look="classic" marker-end="url(#figure5_flowchart-v2-pointEnd)"/><path d="M908.25,589.05L908.25,603.433C908.25,617.817,908.25,646.583,908.25,673.325C908.25,700.067,908.25,724.783,885.482,746.88C862.714,768.976,817.178,788.451,794.41,798.189L771.642,807.927" id="figure5-L_Cert_AppGW_0" class="edge-thickness-normal edge-pattern-dotted edge-thickness-normal edge-pattern-solid flowchart-link" style=";" data-edge="true" data-et="edge" data-id="L_Cert_AppGW_0" data-points="W3sieCI6OTA4LjI0OTk5OTk5OTk5OTksInkiOjU4OS4wNX0seyJ4Ijo5MDguMjQ5OTk5OTk5OTk5OSwieSI6Njc1LjM1fSx7IngiOjkwOC4yNDk5OTk5OTk5OTk5LCJ5Ijo3NDkuNX0seyJ4Ijo3NjcuOTY0Mjg1NzE0Mjg1NywieSI6ODA5LjV9XQ==" data-look="classic" marker-end="url(#figure5_flowchart-v2-pointEnd)"/><path d="M707.486,954.1L726.043,966.458C744.601,978.817,781.715,1003.533,800.273,1028.25C818.83,1052.967,818.83,1077.683,822.829,1099.428C826.829,1121.173,834.828,1139.947,838.827,1149.333L842.827,1158.72" id="figure5-L_AppGW_ACI_0" class="edge-thickness-normal edge-pattern-solid edge-thickness-normal edge-pattern-solid flowchart-link" style=";" data-edge="true" data-et="edge" data-id="L_AppGW_ACI_0" data-points="W3sieCI6NzA3LjQ4NjAxNTcwNTAxODYsInkiOjk1NC4wOTk5OTk5OTk5OTk5fSx7IngiOjgxOC44Mjk5OTk5OTk5OTk5LCJ5IjoxMDI4LjI1fSx7IngiOjgxOC44Mjk5OTk5OTk5OTk5LCJ5IjoxMTAyLjR9LHsieCI6ODQ0LjM5NDYyNTg1MDM0LCJ5IjoxMTYyLjR9XQ==" data-look="classic" marker-end="url(#figure5_flowchart-v2-pointEnd)"/><path d="M785.088,954.1L816.91,966.458C848.732,978.817,912.376,1003.533,944.198,1028.25C976.02,1052.967,976.02,1077.683,968.804,1099.511C961.587,1121.34,947.154,1140.279,939.938,1149.749L932.721,1159.219" id="figure5-L_AppGW_ACI_2" class="edge-thickness-normal edge-pattern-solid edge-thickness-normal edge-pattern-solid flowchart-link" style=";" data-edge="true" data-et="edge" data-id="L_AppGW_ACI_2" data-points="W3sieCI6Nzg1LjA4ODE4MDI2NjMwMjQsInkiOjk1NC4wOTk5OTk5OTk5OTk5fSx7IngiOjk3Ni4wMiwieSI6MTAyOC4yNX0seyJ4Ijo5NzYuMDIsInkiOjExMDIuNH0seyJ4Ijo5MzAuMjk2NjQzOTkwOTI5NiwieSI6MTE2Mi40fV0=" data-look="classic" marker-end="url(#figure5_flowchart-v2-pointEnd)"/><path d="M875.2,1307L875.2,1319.025C875.2,1331.05,875.2,1355.1,875.2,1379.15C875.2,1403.2,875.2,1427.25,875.2,1439.275L875.2,1451.3" id="figure5-L_ACI_AzFiles_0" class="edge-thickness-normal edge-pattern-solid edge-thickness-normal edge-pattern-solid flowchart-link" style=";" data-edge="true" data-et="edge" data-id="L_ACI_AzFiles_0" data-points="W3sieCI6ODc1LjE5OTk5OTk5OTk5OTksInkiOjEzMDd9LHsieCI6ODc1LjE5OTk5OTk5OTk5OTksInkiOjEzNzkuMTV9LHsieCI6ODc1LjE5OTk5OTk5OTk5OTksInkiOjE0NTEuM31d" data-look="classic"/><path d="M406.67,954.1L373.808,966.458C340.946,978.817,275.223,1003.533,242.362,1028.25C209.5,1052.967,209.5,1077.683,217.618,1099.535C225.737,1121.387,241.974,1140.373,250.092,1149.867L258.211,1159.36" id="figure5-L_AppGW_AppSvc_0" class="edge-thickness-normal edge-pattern-solid edge-thickness-normal edge-pattern-solid flowchart-link" style=";" data-edge="true" data-et="edge" data-id="L_AppGW_AppSvc_0" data-points="W3sieCI6NDA2LjY2OTYzNDY4NzYwNjczLCJ5Ijo5NTQuMDk5OTk5OTk5OTk5OX0seyJ4IjoyMDkuNSwieSI6MTAyOC4yNX0seyJ4IjoyMDkuNSwieSI6MTEwMi40fSx7IngiOjI2MC44MTA2NTc1OTYzNzE4NywieSI6MTE2Mi40fV0=" data-look="classic" marker-end="url(#figure5_flowchart-v2-pointEnd)"/><path d="M490.354,954.1L471.797,966.458C453.239,978.817,416.125,1003.533,397.567,1028.25C379.01,1052.967,379.01,1077.683,375.011,1099.428C371.011,1121.173,363.012,1139.947,359.013,1149.333L355.013,1158.72" id="figure5-L_AppGW_AppSvc_2" class="edge-thickness-normal edge-pattern-solid edge-thickness-normal edge-pattern-solid flowchart-link" style=";" data-edge="true" data-et="edge" data-id="L_AppGW_AppSvc_2" data-points="W3sieCI6NDkwLjM1Mzk4NDI5NDk4MTIsInkiOjk1NC4wOTk5OTk5OTk5OTk5fSx7IngiOjM3OS4wMSwieSI6MTAyOC4yNX0seyJ4IjozNzkuMDEsInkiOjExMDIuNH0seyJ4IjozNTMuNDQ1Mzc0MTQ5NjU5ODcsInkiOjExNjIuNH1d" data-look="classic" marker-end="url(#figure5_flowchart-v2-pointEnd)"/><path d="M322.64,1307L322.64,1319.025C322.64,1331.05,322.64,1355.1,322.64,1379.15C322.64,1403.2,322.64,1427.25,322.64,1439.275L322.64,1451.3" id="figure5-L_AppSvc_AppStorage_0" class="edge-thickness-normal edge-pattern-solid edge-thickness-normal edge-pattern-solid flowchart-link" style=";" data-edge="true" data-et="edge" data-id="L_AppSvc_AppStorage_0" data-points="W3sieCI6MzIyLjY0LCJ5IjoxMzA3fSx7IngiOjMyMi42NCwieSI6MTM3OS4xNX0seyJ4IjozMjIuNjQsInkiOjE0NTEuM31d" data-look="classic"/></g><g class="edgeLabels"><g class="edgeLabel" transform="translate(185.53999999999996, 322.45)"><rect x="-60.199999999999996" y="-18" width="120.39999999999999" height="36" rx="4" style="fill:#f7faff;opacity:1;fill-opacity:1;stroke:none"/><text text-anchor="middle" fill="#061c3c" font-family="DejaVu Sans" font-size="18"><tspan x="0" y="6">HTTPS :443</tspan></text></g><g class="edgeLabel" transform="translate(551.9399999999999, 322.45)"><rect x="-60.199999999999996" y="-18" width="120.39999999999999" height="36" rx="4" style="fill:#f7faff;opacity:1;fill-opacity:1;stroke:none"/><text text-anchor="middle" fill="#061c3c" font-family="DejaVu Sans" font-size="18"><tspan x="0" y="6">gRPC :9443</tspan></text></g><g class="edgeLabel"><g class="label" data-id="L_DNS_AppGW_0" transform="translate(-0.5, 15.950000000000001)"><text y="-10.1" text-anchor="middle"><tspan class="text-outer-tspan row" x="0" y="-0.1em" dy="1.1em" text-anchor="middle"/></text></g></g><g><rect class="background" style="stroke: none"/></g><g class="edgeLabel" transform="translate(908.2499999999999, 675.35)"><rect x="-49.76" y="-18" width="99.52" height="36" rx="4" style="fill:#f7faff;opacity:1;fill-opacity:1;stroke:none"/><text text-anchor="middle" fill="#061c3c" font-family="DejaVu Sans" font-size="18"><tspan x="0" y="6">TLS cert</tspan></text></g><g class="edgeLabel" transform="translate(818.8299999999999, 1028.25)"><rect x="-34.099999999999994" y="-18" width="68.19999999999999" height="36" rx="4" style="fill:#f7faff;opacity:1;fill-opacity:1;stroke:none"/><text text-anchor="middle" fill="#061c3c" font-family="DejaVu Sans" font-size="18"><tspan x="0" y="6">:8081</tspan></text></g><g class="edgeLabel" transform="translate(976.02, 1028.25)"><rect x="-70.63999999999999" y="-18" width="141.27999999999997" height="36" rx="4" style="fill:#f7faff;opacity:1;fill-opacity:1;stroke:none"/><text text-anchor="middle" fill="#061c3c" font-family="DejaVu Sans" font-size="18"><tspan x="0" y="6">:9090 HTTP/2</tspan></text></g><g class="edgeLabel"><g class="label" data-id="L_ACI_AzFiles_0" transform="translate(-0.5, 15.950000000000001)"><text y="-10.1" text-anchor="middle"><tspan class="text-outer-tspan row" x="0" y="-0.1em" dy="1.1em" text-anchor="middle"/></text></g></g><g><rect class="background" style="stroke: none"/></g><g class="edgeLabel" transform="translate(209.5, 1028.25)"><rect x="-34.099999999999994" y="-18" width="68.19999999999999" height="36" rx="4" style="fill:#f7faff;opacity:1;fill-opacity:1;stroke:none"/><text text-anchor="middle" fill="#061c3c" font-family="DejaVu Sans" font-size="18"><tspan x="0" y="6">:8081</tspan></text></g><g class="edgeLabel" transform="translate(379.01, 1028.25)"><rect x="-70.63999999999999" y="-18" width="141.27999999999997" height="36" rx="4" style="fill:#f7faff;opacity:1;fill-opacity:1;stroke:none"/><text text-anchor="middle" fill="#061c3c" font-family="DejaVu Sans" font-size="18"><tspan x="0" y="6">:9090 HTTP/2</tspan></text></g><g class="edgeLabel"><g class="label" data-id="L_AppSvc_AppStorage_0" transform="translate(-0.5, 15.950000000000001)"><text y="-10.1" text-anchor="middle"><tspan class="text-outer-tspan row" x="0" y="-0.1em" dy="1.1em" text-anchor="middle"/></text></g></g><g><rect class="background" style="stroke: none"/></g></g><g class="nodes"><g class="node default" id="figure5-flowchart-Browser-0" data-look="classic" transform="translate(185.53999999999996, 128.15)"><rect class="basic label-container" style="" x="-132.54" y="-60.15" width="265.08" height="120.3" rx="10" ry="10"/><g class="label" style="" transform="translate(0, -12.15)"><rect rx="10" ry="10"/><g><rect class="background" style="stroke: none" rx="10" ry="10"/><text y="-10.1" style=""><tspan class="text-outer-tspan row" x="0" y="-0.1em" dy="1.1em">Browser</tspan></text></g></g><g class="diagram-icon" transform="translate(-122.53999999999999,-12)" fill="none" stroke="#ffffff" stroke-width="1.8" stroke-linecap="round" stroke-linejoin="round" aria-hidden="true"><rect x="2" y="3" width="20" height="18" rx="3"/><path d="M2 8h20m-15-3h1m3 0h1"/></g></g><g class="node default" id="figure5-flowchart-Agent-1" data-look="classic" transform="translate(551.9399999999999, 128.15)"><rect class="basic label-container" style="" x="-163.86" y="-60.15" width="327.72" height="120.3" rx="10" ry="10"/><g class="label" style="" transform="translate(0, -12.15)"><rect rx="10" ry="10"/><g><rect class="background" style="stroke: none" rx="10" ry="10"/><text y="-10.1" style=""><tspan class="text-outer-tspan row" x="0" y="-0.1em" dy="1.1em">Veyport Agent</tspan></text></g></g><g class="diagram-icon" transform="translate(-153.86,-12)" fill="none" stroke="#ffffff" stroke-width="1.8" stroke-linecap="round" stroke-linejoin="round" aria-hidden="true"><rect x="3" y="2" width="18" height="20" rx="3"/><path d="M7 7h3m4 0h3M7 12h3m4 0h3M7 17h3m4 0h3"/></g></g><g class="node default" id="figure5-flowchart-DNS-2" data-look="classic" transform="translate(368.73999999999995, 528.9)"><rect class="basic label-container" style="" x="-195.18" y="-72.3" width="390.36" height="144.6" rx="10" ry="10"/><g class="label" style="" transform="translate(0, -24.3)"><rect rx="10" ry="10"/><g><rect class="background" style="stroke: none" rx="10" ry="10"/><text y="-10.1" style=""><tspan class="text-outer-tspan row" x="0" y="-0.1em" dy="1.1em">Azure DNS</tspan><tspan class="text-outer-tspan row" x="0" y="1em" dy="1.1em">veyport.example.com</tspan></text></g></g></g><g class="node default" id="figure5-flowchart-Cert-3" data-look="classic" transform="translate(908.2499999999999, 528.9)"><rect class="basic label-container" style="" x="-195.18" y="-60.15" width="390.36" height="120.3" rx="10" ry="10"/><g class="label" style="" transform="translate(0, -12.15)"><rect rx="10" ry="10"/><g><rect class="background" style="stroke: none" rx="10" ry="10"/><text y="-10.1" style=""><tspan class="text-outer-tspan row" x="0" y="-0.1em" dy="1.1em">Managed Certificate</tspan></text></g></g><g class="diagram-icon" transform="translate(-185.18,-12)" fill="none" stroke="#ffffff" stroke-width="1.8" stroke-linecap="round" stroke-linejoin="round" aria-hidden="true"><path d="m12 1 9 4v7c0 5-5 9-9 11-4-2-9-6-9-11V5Z"/><rect x="8" y="10" width="8" height="7" rx="1"/><path d="M9 10V8a3 3 0 0 1 6 0v2"/></g></g><g class="node default" id="figure5-flowchart-AppGW-4" data-look="classic" transform="translate(598.92, 881.8)"><rect class="basic label-container" style="" x="-216.06" y="-72.3" width="432.12" height="144.6" rx="10" ry="10"/><g class="label" style="" transform="translate(0, -24.3)"><rect rx="10" ry="10"/><g><rect class="background" style="stroke: none" rx="10" ry="10"/><text y="-10.1" style=""><tspan class="text-outer-tspan row" x="0" y="-0.1em" dy="1.1em">Application Gateway v2</tspan><tspan class="text-outer-tspan row" x="0" y="1em" dy="1.1em">HTTPS :443 + gRPC :9443</tspan></text></g></g></g><g class="node default" id="figure5-flowchart-ACI-5" data-look="classic" transform="translate(875.1999999999999, 1234.7)"><rect class="basic label-container" style="" x="-221.27999999999997" y="-72.3" width="442.55999999999995" height="144.6" rx="10" ry="10"/><g class="label" style="" transform="translate(0, -24.3)"><rect rx="10" ry="10"/><g><rect class="background" style="stroke: none" rx="10" ry="10"/><text y="-10.1" style=""><tspan class="text-outer-tspan row" x="0" y="-0.1em" dy="1.1em">Azure Container Instance</tspan><tspan class="text-outer-tspan row" x="0" y="1em" dy="1.1em">yiucloud/veyport</tspan></text></g></g><g class="diagram-icon" transform="translate(-211.27999999999997,-12)" fill="none" stroke="#ffffff" stroke-width="1.8" stroke-linecap="round" stroke-linejoin="round" aria-hidden="true"><rect x="3" y="2" width="18" height="20" rx="3"/><path d="M7 7h3m4 0h3M7 12h3m4 0h3M7 17h3m4 0h3"/></g></g><g class="node default" id="figure5-flowchart-AzFiles-6" data-look="classic" transform="translate(875.1999999999999, 1523.6)"><rect class="basic label-container" style="" x="-184.74" y="-72.3" width="369.48" height="144.6" rx="10" ry="10"/><g class="label" style="" transform="translate(0, -24.3)"><rect rx="10" ry="10"/><g><rect class="background" style="stroke: none" rx="10" ry="10"/><text y="-10.1" style=""><tspan class="text-outer-tspan row" x="0" y="-0.1em" dy="1.1em">Azure Files Share</tspan><tspan class="text-outer-tspan row" x="0" y="1em" dy="1.1em">/data</tspan></text></g></g></g><g class="node default" id="figure5-flowchart-AppSvc-7" data-look="classic" transform="translate(322.64, 1234.7)"><rect class="basic label-container" style="" x="-216.06" y="-72.3" width="432.12" height="144.6" rx="10" ry="10"/><g class="label" style="" transform="translate(0, -24.3)"><rect rx="10" ry="10"/><g><rect class="background" style="stroke: none" rx="10" ry="10"/><text y="-10.1" style=""><tspan class="text-outer-tspan row" x="0" y="-0.1em" dy="1.1em">App Service (Container)</tspan><tspan class="text-outer-tspan row" x="0" y="1em" dy="1.1em">yiucloud/veyport</tspan></text></g></g><g class="diagram-icon" transform="translate(-206.06,-12)" fill="none" stroke="#ffffff" stroke-width="1.8" stroke-linecap="round" stroke-linejoin="round" aria-hidden="true"><rect x="3" y="2" width="18" height="20" rx="3"/><path d="M7 7h3m4 0h3M7 12h3m4 0h3M7 17h3m4 0h3"/></g></g><g class="node default" id="figure5-flowchart-AppStorage-8" data-look="classic" transform="translate(322.64, 1523.6)"><rect class="basic label-container" style="" x="-221.27999999999997" y="-72.3" width="442.55999999999995" height="144.6" rx="10" ry="10"/><g class="label" style="" transform="translate(0, -24.3)"><rect rx="10" ry="10"/><g><rect class="background" style="stroke: none" rx="10" ry="10"/><text y="-10.1" style=""><tspan class="text-outer-tspan row" x="0" y="-0.1em" dy="1.1em">Persistent Storage Mount</tspan><tspan class="text-outer-tspan row" x="0" y="1em" dy="1.1em">/data</tspan></text></g></g></g></g></g></g><defs><filter id="figure5-drop-shadow" height="130%" width="130%"><fedropshadow dx="4" dy="4" stdDeviation="0" flood-opacity="0.06" flood-color="#000000"/></filter></defs><defs><filter id="figure5-drop-shadow-small" height="150%" width="150%"><fedropshadow dx="2" dy="2" stdDeviation="0" flood-opacity="0.06" flood-color="#000000"/></filter></defs><linearGradient id="figure5-gradient" gradientUnits="objectBoundingBox" x1="0%" y1="0%" x2="100%" y2="0%"><stop offset="0%" stop-color="#1c579c" stop-opacity="1"/><stop offset="100%" stop-color="hsl(93.4736842105, 32.5190839695%, 15.6862745098%)" stop-opacity="1"/></linearGradient><style>
    #figure5 .node rect, #figure5 .node polygon, #figure5 .node path,
    #figure5 .node circle, #figure5 .node ellipse, #figure5 rect.actor {
      fill: url(#figure5-card); stroke: #061c3c; stroke-width: 2;
      filter: url(#figure5-shadow);
    }
    #figure5 .node text, #figure5 .node tspan,
    #figure5 text.actor, #figure5 text.actor tspan { fill: #ffffff; }
    #figure5 .cluster rect { fill: #f1f6fd; stroke: #245c9e; stroke-width: 2; }
    #figure5 .cluster text, #figure5 .cluster tspan { fill: #061c3c; font-weight: bold; }
    #figure5 .flowchart-link, #figure5 .messageLine0, #figure5 .messageLine1 {
      stroke: #061c3c; stroke-width: 2;
    }
    #figure5 marker path, #figure5 marker polygon { fill: #061c3c !important; stroke: #061c3c !important; }
    #figure5 .diagram-icon path, #figure5 .diagram-icon rect, #figure5 .diagram-icon ellipse {
      fill: none; stroke: #ffffff; stroke-width: 1.8; filter: none;
    }
    #figure5 .messageText, #figure5 .messageText tspan,
    #figure5 .noteText, #figure5 .noteText tspan { fill: #061c3c; }
  </style></svg></svg>